<svg xmlns="http://www.w3.org/2000/svg" viewBox="0 0 64 64">
  <defs>
    <linearGradient id="g" x1="0" x2="1" y1="0" y2="1">
      <stop offset="0" stop-color="#0d6efd" />
      <stop offset="1" stop-color="#66a6ff" />
    </linearGradient>
  </defs>
  <rect width="64" height="64" rx="14" fill="url(#g)"/>
  <path d="M18 40c3 4 9 7 15 7 9 0 15-4 15-10 0-5-4-8-12-9l-5-1c-4-1-6-2-6-4 0-3 3-5 8-5 4 0 8 1 11 4l4-5c-4-4-9-6-15-6-9 0-15 4-15 11 0 6 4 9 12 10l5 1c4 1 6 2 6 4 0 3-3 4-8 4-5 0-9-2-12-5l-3 4z" fill="#fff"/>
</svg>

